Coordinates
version=1
nRows=17
nColumns=33
inDegrees=yes

Units are S.I. units (second, meters, Newtons, ...)
Angles are in degrees.

endheader
time	ground_thorax_rot_x	ground_thorax_rot_y	ground_thorax_rot_z	ground_thorax_tx	ground_thorax_ty	ground_thorax_tz	clav_prot_r	clav_elev_r	scapula_abduction_r	scapula_elevation_r	scapula_upward_rot_r	scapula_winging_r	shoulder_elv_r	plane_of_elev_r	axial_rot_r	elbow_flexion_r	pro_sup_r	wrist_flex_r	wrist_dev_r	clav_prot_l	clav_elev_l	scapula_abduction_l	scapula_elevation_l	scapula_upward_rot_l	scapula_winging_l	shoulder_elv_l	plane_of_elev_l	axial_rot_l	elbow_flexion_l	pro_sup_l	wrist_flex_l	wrist_dev_l	
7.5300	-16.952325	-34.237124	59.790532	-62.294290	786.337744	20.916680	7.817750	-45.000000	36.486525	-45.000000	-45.000000	-1537.552449	-3897.631372	27.955099	77.727790	729.218716	27.814051	16.658872	10.281923	12.446679	36.369444	-28.264513	-45.000000	-45.000000	74.987943	-2453.885277	19.043743	-54.928467	-350.446831	27.971913	8.451214	-17.199426	
7.5400	-17.043987	-34.172032	59.786343	-62.585179	786.312548	20.684433	7.880042	-45.000000	36.359445	-45.000000	-45.000000	-1537.539581	-3897.726222	27.975390	77.312703	729.052123	27.888897	16.684271	10.326852	12.433604	36.391973	-28.221184	-45.000000	-45.000000	75.013252	-2453.842763	19.083458	-54.599360	-350.492976	28.177102	8.478441	-17.261435	
7.5500	-17.141358	-34.089291	59.719583	-62.902739	786.265176	20.468527	7.989283	-45.000000	36.326812	-45.000000	-45.000000	-1537.520905	-3897.810383	28.023880	76.976258	728.911459	27.987991	16.713081	10.356166	12.407626	36.405222	-28.213862	-45.000000	-45.000000	75.087180	-2453.895059	19.168946	-54.242197	-350.562091	28.350737	8.467403	-17.341979	
7.5600	-17.234447	-34.002630	59.670963	-63.278516	786.172737	20.282877	8.021077	-45.000000	36.291125	-45.000000	-45.000000	-1537.508229	-3897.853494	28.048563	76.645874	728.808285	28.135946	16.747978	10.396419	12.398410	36.412045	-28.207547	-45.000000	-45.000000	75.135462	-2453.912186	19.216467	-54.002619	-350.607535	28.485203	8.465966	-17.385669	
7.5700	-17.325301	-33.913784	59.618531	-63.711245	786.029544	20.130567	8.021344	-45.000000	36.273678	-45.000000	-45.000000	-1537.495040	-3897.862183	28.062498	76.363968	728.738757	28.319093	16.788541	10.438244	12.397336	36.424907	-28.208739	-45.000000	-45.000000	75.173448	-2453.916000	19.241302	-53.825740	-350.642870	28.564369	8.478998	-17.413320	
7.5800	-17.419222	-33.825985	59.554659	-64.198256	785.827499	20.007757	8.005581	-45.000000	36.279347	-45.000000	-45.000000	-1537.492825	-3897.851549	28.075887	76.144183	728.697650	28.528123	16.826554	10.473589	12.400737	36.426808	-28.223663	-45.000000	-45.000000	75.224585	-2453.929735	19.267396	-53.694539	-350.688895	28.563944	8.489599	-17.419382	
7.5900	-17.512867	-33.750643	59.493853	-64.723809	785.562725	19.900674	7.980453	-45.000000	36.281909	-45.000000	-45.000000	-1537.493580	-3897.817771	28.080113	75.982739	728.679241	28.740780	16.867629	10.507585	12.409827	36.444928	-28.239192	-45.000000	-45.000000	75.269541	-2453.914358	19.271712	-53.590599	-350.730625	28.460747	8.536429	-17.413128	
7.6000	-17.610059	-33.696651	59.427005	-65.253347	785.227904	19.776788	7.971456	-45.000000	36.296183	-45.000000	-45.000000	-1537.510607	-3897.786809	28.090913	75.888041	728.670896	28.940753	16.900303	10.529921	12.420554	36.452570	-28.263724	-45.000000	-45.000000	75.348104	-2453.915906	19.295594	-53.472703	-350.805232	28.192818	8.594437	-17.381238	
7.6100	-17.708652	-33.677440	59.378804	-65.750364	784.812191	19.598170	7.964439	-45.000000	36.289117	-45.000000	-45.000000	-1537.531275	-3897.744784	28.085653	75.839877	728.671645	29.116329	16.937080	10.554642	12.438884	36.486284	-28.283645	-45.000000	-45.000000	75.424743	-2453.875613	19.300634	-53.348983	-350.891988	27.703510	8.720392	-17.324052	
7.6200	-17.808168	-33.723603	59.355245	-66.114595	784.270323	19.267559	7.971281	-45.000000	36.295857	-45.000000	-45.000000	-1537.566281	-3897.712536	28.064494	75.859592	728.681633	29.273013	16.971869	10.574945	12.470185	36.519614	-28.311714	-45.000000	-45.000000	75.546976	-2453.845799	19.327727	-53.176733	-351.054923	26.756624	8.918799	-17.190023	
7.6300	-17.910343	-33.849355	59.368350	-66.299727	783.570380	18.729710	7.980042	-45.000000	36.303390	-45.000000	-45.000000	-1537.600695	-3897.675787	28.012355	75.951295	728.706126	29.413678	17.017358	10.601395	12.518996	36.582590	-28.342229	-45.000000	-45.000000	75.698288	-2453.793828	19.355092	-52.956936	-351.291218	25.264188	9.237098	-16.979689	
7.6400	-18.002432	-34.206248	59.499681	-65.885276	782.492843	17.597103	8.007349	-45.000000	36.348801	-45.000000	-45.000000	-1537.649509	-3897.663487	27.887902	76.236355	728.760086	29.576500	17.076100	10.626122	12.613332	36.674236	-28.386247	-45.000000	-45.000000	75.968777	-2453.758142	19.434497	-52.546882	-351.782193	22.140578	9.862611	-16.487268	
7.6500	-18.116672	-34.713429	59.701666	-65.084736	781.078370	16.007730	8.031199	-45.000000	36.398225	-45.000000	-45.000000	-1537.694505	-3897.653640	27.704579	76.658712	728.837987	29.746030	17.152267	10.654476	12.751539	36.813138	-28.447116	-45.000000	-45.000000	76.314228	-2453.704367	19.526410	-52.051071	-352.449805	18.000622	10.689321	-15.879846	
7.6600	-18.241560	-35.321858	59.963028	-64.056553	779.382770	14.081507	8.087345	-45.000000	36.475946	-45.000000	-45.000000	-1537.759588	-3897.662727	27.491226	77.191536	728.929039	29.902982	17.231803	10.684894	12.915630	36.961502	-28.500284	-45.000000	-45.000000	76.717316	-2453.639358	19.645768	-51.456381	-353.243341	13.593275	11.591460	-15.285440	
7.6700	-18.417947	-35.807667	60.144205	-63.393728	777.703654	12.344790	8.117081	-45.000000	36.521031	-45.000000	-45.000000	-1537.818924	-3897.659747	27.315870	77.654670	729.002843	29.998818	17.302016	10.718189	13.063536	37.100105	-28.557953	-45.000000	-45.000000	77.087104	-2453.555181	19.748691	-50.975648	-353.934095	10.522524	12.234766	-15.010046	
7.6800	-18.617924	-36.175559	60.251821	-63.082391	776.117961	10.843520	8.141989	-45.000000	36.557063	-45.000000	-45.000000	-1537.884758	-3897.654194	27.187028	78.042342	729.060267	30.036634	17.360542	10.756497	13.178347	37.210449	-28.609739	-45.000000	-45.000000	77.414320	-2453.464645	19.848044	-50.563743	-354.506583	8.772771	12.620815	-14.993033	
7.6900	-18.858207	-36.277848	60.189336	-63.508906	774.881475	9.965895	8.112777	-45.000000	36.544109	-45.000000	-45.000000	-1537.931175	-3897.614534	27.144253	78.216737	729.090768	29.992935	17.402255	10.797357	13.243690	37.283681	-28.671179	-45.000000	-45.000000	77.639380	-2453.375892	19.908949	-50.383039	-354.805433	9.097152	12.570201	-15.353326	
